<?xml version="1.0" standalone="no"?>
<!DOCTYPE svg PUBLIC "-//W3C//DTD SVG 20010904//EN" "http://www.w3.org/TR/2001/REC-SVG-20010904/DTD/svg10.dtd">
<!-- Created using Karbon14, part of koffice: http://www.koffice.org/karbon -->
<svg xmlns="http://www.w3.org/2000/svg" xmlns:xlink="http://www.w3.org/1999/xlink" width="595.277pt" height="841.891pt">
  <defs>
  </defs>
  <g id="defitem4">
    <g id="defitem380" transform="translate(0, 289.399)">
      <g id="defitem381">
        <rect id="defitem5" fill="#000000" fill-opacity="1" fill-rule="evenodd" stroke="#000000" stroke-opacity="1" stroke-width="0" stroke-linecap="square" stroke-linejoin="miter" stroke-miterlimit="2" width="99.2128pt" height="99.2128pt"/>
        <path id="defitem6" fill="#ffffff" fill-opacity="1" fill-rule="evenodd" d="M11.3386 5.6693C11.3386 2.53823 8.80037 1.91716e-16 5.6693 0C2.53823 -1.91716e-16 3.83433e-16 2.53823 0 5.6693C-3.83433e-16 8.80037 2.53823 11.3386 5.6693 11.3386C8.80037 11.3386 11.3386 8.80037 11.3386 5.6693"  transform="translate(56.3387, 56.3387)" />
      </g>
      <g id="defitem382" transform="translate(620.08, 0)">
        <rect id="defitem5" fill="#000000" fill-opacity="1" fill-rule="evenodd" stroke="#000000" stroke-opacity="1" stroke-width="0" stroke-linecap="square" stroke-linejoin="miter" stroke-miterlimit="2" width="99.2128pt" height="99.2128pt"/>
        <path id="defitem6" fill="#ffffff" fill-opacity="1" fill-rule="evenodd" d="M11.3386 5.6693C11.3386 2.53823 8.80037 1.91716e-16 5.6693 0C2.53823 -1.91716e-16 3.83433e-16 2.53823 0 5.6693C-3.83433e-16 8.80037 2.53823 11.3386 5.6693 11.3386C8.80037 11.3386 11.3386 8.80037 11.3386 5.6693"  transform="translate(56.3387, 56.3387)" />
      </g>
    </g>
    <g id="defitem383">
      <rect id="defitem5" fill="#000000" fill-opacity="1" fill-rule="evenodd" stroke="#000000" stroke-opacity="1" stroke-width="0" stroke-linecap="square" stroke-linejoin="miter" stroke-miterlimit="2" width="99.2128pt" height="99.2128pt"/>
      <circle id="defitem6" r="4.53544pt" cx="4.53544pt" cy="4.53544pt" transform="translate(56.3387, 56.3387)" fill="#ffffff" fill-opacity="1" fill-rule="evenodd"/>
    </g>
    <g id="defitem384" transform="translate(310.04, -1.85625e-05)">
      <rect id="defitem5" fill="#000000" fill-opacity="1" fill-rule="evenodd" stroke="#000000" stroke-opacity="1" stroke-width="0" stroke-linecap="square" stroke-linejoin="miter" stroke-miterlimit="2" width="99.2128pt" height="99.2128pt"/>
      <path id="defitem6" fill="#ffffff" fill-opacity="1" fill-rule="evenodd" d="M11.3386 5.6693C11.3386 2.53823 8.80037 1.91716e-16 5.6693 0C2.53823 -1.91716e-16 3.83433e-16 2.53823 0 5.6693C-3.83433e-16 8.80037 2.53823 11.3386 5.6693 11.3386C8.80037 11.3386 11.3386 8.80037 11.3386 5.6693"  transform="translate(56.3387, 56.3387)" />
    </g>
    <g id="defitem385" transform="translate(620.08, 0)">
      <rect id="defitem5" fill="#000000" fill-opacity="1" fill-rule="evenodd" stroke="#000000" stroke-opacity="1" stroke-width="0" stroke-linecap="square" stroke-linejoin="miter" stroke-miterlimit="2" width="99.2128pt" height="99.2128pt"/>
      <path id="defitem6" fill="#ffffff" fill-opacity="1" fill-rule="evenodd" d="M11.3386 5.6693C11.3386 2.53823 8.80037 1.91716e-16 5.6693 0C2.53823 -1.91716e-16 3.83433e-16 2.53823 0 5.6693C-3.83433e-16 8.80037 2.53823 11.3386 5.6693 11.3386C8.80037 11.3386 11.3386 8.80037 11.3386 5.6693"  transform="translate(56.3387, 56.3388)" />
    </g>
    <g id="defitem386" transform="translate(0, 868.112)">
      <rect id="defitem5" fill="#000000" fill-opacity="1" fill-rule="evenodd" stroke="#000000" stroke-opacity="1" stroke-width="0" stroke-linecap="square" stroke-linejoin="miter" stroke-miterlimit="2" width="99.2128pt" height="99.2128pt"/>
      <path id="defitem6" fill="#ffffff" fill-opacity="1" fill-rule="evenodd" d="M11.3386 5.6693C11.3386 2.53823 8.80037 1.91716e-16 5.6693 0C2.53823 -1.91716e-16 3.83433e-16 2.53823 0 5.6693C-3.83433e-16 8.80037 2.53823 11.3386 5.6693 11.3386C8.80037 11.3386 11.3386 8.80037 11.3386 5.6693"  transform="translate(56.3387, 56.3387)" />
    </g>
    <g id="defitem387" transform="translate(310.04, 868.112)">
      <rect id="defitem5" fill="#000000" fill-opacity="1" fill-rule="evenodd" stroke="#000000" stroke-opacity="1" stroke-width="0" stroke-linecap="square" stroke-linejoin="miter" stroke-miterlimit="2" width="99.2128pt" height="99.2128pt"/>
      <path id="defitem6" fill="#ffffff" fill-opacity="1" fill-rule="evenodd" d="M11.3386 5.6693C11.3386 2.53823 8.80037 1.91716e-16 5.6693 0C2.53823 -1.91716e-16 3.83433e-16 2.53823 0 5.6693C-3.83433e-16 8.80037 2.53823 11.3386 5.6693 11.3386C8.80037 11.3386 11.3386 8.80037 11.3386 5.6693"  transform="translate(56.3387, 56.3388)" />
    </g>
    <g id="defitem388" transform="translate(620.08, 868.112)">
      <rect id="defitem5" fill="#000000" fill-opacity="1" fill-rule="evenodd" stroke="#000000" stroke-opacity="1" stroke-width="0" stroke-linecap="square" stroke-linejoin="miter" stroke-miterlimit="2" width="99.2128pt" height="99.2128pt"/>
      <path id="defitem6" fill="#ffffff" fill-opacity="1" fill-rule="evenodd" d="M11.3386 5.6693C11.3386 2.53823 8.80037 1.91716e-16 5.6693 0C2.53823 -1.91716e-16 3.83433e-16 2.53823 0 5.6693C-3.83433e-16 8.80037 2.53823 11.3386 5.6693 11.3386C8.80037 11.3386 11.3386 8.80037 11.3386 5.6693"  transform="translate(56.3387, 56.3387)" />
    </g>
    <g id="defitem389" transform="translate(0, 578.729)">
      <rect id="defitem5" fill="#000000" fill-opacity="1" fill-rule="evenodd" stroke="#000000" stroke-opacity="1" stroke-width="0" stroke-linecap="square" stroke-linejoin="miter" stroke-miterlimit="2" width="99.2128pt" height="99.2128pt"/>
      <path id="defitem6" fill="#ffffff" fill-opacity="1" fill-rule="evenodd" d="M11.3386 5.6693C11.3386 2.53823 8.80037 1.91716e-16 5.6693 0C2.53823 -1.91716e-16 3.83433e-16 2.53823 0 5.6693C-3.83433e-16 8.80037 2.53823 11.3386 5.6693 11.3386C8.80037 11.3386 11.3386 8.80037 11.3386 5.6693"  transform="translate(56.3387, 56.3387)" />
    </g>
    <g id="defitem390" transform="translate(620.08, 578.729)">
      <rect id="defitem5" fill="#000000" fill-opacity="1" fill-rule="evenodd" stroke="#000000" stroke-opacity="1" stroke-width="0" stroke-linecap="square" stroke-linejoin="miter" stroke-miterlimit="2" width="99.2128pt" height="99.2128pt"/>
      <path id="defitem6" fill="#ffffff" fill-opacity="1" fill-rule="evenodd" d="M11.3386 5.6693C11.3386 2.53823 8.80037 1.91716e-16 5.6693 0C2.53823 -1.91716e-16 3.83433e-16 2.53823 0 5.6693C-3.83433e-16 8.80037 2.53823 11.3386 5.6693 11.3386C8.80037 11.3386 11.3386 8.80037 11.3386 5.6693"  transform="translate(56.3387, 56.3387)" />
    </g>
    <g id="defitem391" transform="translate(310.04, 434.056)">
      <rect id="defitem5" fill="#000000" fill-opacity="1" fill-rule="evenodd" stroke="#000000" stroke-opacity="1" stroke-width="0" stroke-linecap="square" stroke-linejoin="miter" stroke-miterlimit="2" width="99.2128pt" height="99.2128pt"/>
      <path id="defitem6" fill="#ffffff" fill-opacity="1" fill-rule="evenodd" d="M11.3386 5.6693C11.3386 2.53823 8.80037 1.91716e-16 5.6693 0C2.53823 -1.91716e-16 3.83433e-16 2.53823 0 5.6693C-3.83433e-16 8.80037 2.53823 11.3386 5.6693 11.3386C8.80037 11.3386 11.3386 8.80037 11.3386 5.6693"  transform="translate(56.3387, 56.3388)" />
    </g>
    <g id="defitem392" transform="translate(310.04, 217.028)">
      <rect id="defitem5" fill="#000000" fill-opacity="1" fill-rule="evenodd" stroke="#000000" stroke-opacity="1" stroke-width="0" stroke-linecap="square" stroke-linejoin="miter" stroke-miterlimit="2" width="99.2128pt" height="99.2128pt"/>
      <path id="defitem6" fill="#ffffff" fill-opacity="1" fill-rule="evenodd" d="M11.3386 5.6693C11.3386 2.53823 8.80037 1.91716e-16 5.6693 0C2.53823 -1.91716e-16 3.83433e-16 2.53823 0 5.6693C-3.83433e-16 8.80037 2.53823 11.3386 5.6693 11.3386C8.80037 11.3386 11.3386 8.80037 11.3386 5.6693"  transform="translate(56.3387, 56.3388)" />
    </g>
    <g id="defitem393" transform="translate(310.04, 651.084)">
      <rect id="defitem5" fill="#000000" fill-opacity="1" fill-rule="evenodd" stroke="#000000" stroke-opacity="1" stroke-width="0" stroke-linecap="square" stroke-linejoin="miter" stroke-miterlimit="2" width="99.2128pt" height="99.2128pt"/>
      <path id="defitem6" fill="#ffffff" fill-opacity="1" fill-rule="evenodd" d="M11.3386 5.6693C11.3386 2.53823 8.80037 1.91716e-16 5.6693 0C2.53823 -1.91716e-16 3.83433e-16 2.53823 0 5.6693C-3.83433e-16 8.80037 2.53823 11.3386 5.6693 11.3386C8.80037 11.3386 11.3386 8.80037 11.3386 5.6693"  transform="translate(56.3387, 56.3388)" />
    </g>
  </g>
</svg>
