<?xml version="1.0" standalone="no"?>
<!DOCTYPE svg PUBLIC "-//W3C//DTD SVG 20010904//EN" "http://www.w3.org/TR/2001/REC-SVG-20010904/DTD/svg10.dtd">
<!-- Created using Karbon14, part of koffice: http://www.koffice.org/karbon -->
<svg xmlns="http://www.w3.org/2000/svg" xmlns:xlink="http://www.w3.org/1999/xlink" width="595.277pt" height="841.891pt">
  <defs>
  </defs>
  <g id="defitem4">
    <g id="defitem380" transform="translate(0, 289.399)">
      <g id="defitem381">
        <rect id="defitem5" fill="#000000" fill-opacity="1" fill-rule="evenodd" stroke="#000000" stroke-opacity="1" stroke-width="0" stroke-linecap="square" stroke-linejoin="miter" stroke-miterlimit="2" width="99.2128pt" height="99.2128pt"/>
        <path id="defitem6" fill="#ffffff" fill-opacity="1" fill-rule="evenodd" d="M11.3386 5.6693C11.3386 2.53823 8.80037 1.91716e-16 5.6693 0C2.53823 -1.91716e-16 3.83433e-16 2.53823 0 5.6693C-3.83433e-16 8.80037 2.53823 11.3386 5.6693 11.3386C8.80037 11.3386 11.3386 8.80037 11.3386 5.6693"  transform="translate(56.3387, 56.3387)" />
      </g>
      <g id="defitem382" transform="translate(620.08, 0)">
        <rect id="defitem5" fill="#000000" fill-opacity="1" fill-rule="evenodd" stroke="#000000" stroke-opacity="1" stroke-width="0" stroke-linecap="square" stroke-linejoin="miter" stroke-miterlimit="2" width="99.2128pt" height="99.2128pt"/>
        <path id="defitem6" fill="#ffffff" fill-opacity="1" fill-rule="evenodd" d="M11.3386 5.6693C11.3386 2.53823 8.80037 1.91716e-16 5.6693 0C2.53823 -1.91716e-16 3.83433e-16 2.53823 0 5.6693C-3.83433e-16 8.80037 2.53823 11.3386 5.6693 11.3386C8.80037 11.3386 11.3386 8.80037 11.3386 5.6693"  transform="translate(56.3387, 56.3387)" />
      </g>
    </g>
    <g id="defitem383">
      <rect id="defitem5" fill="#000000" fill-opacity="1" fill-rule="evenodd" stroke="#000000" stroke-opacity="1" stroke-width="0" stroke-linecap="square" stroke-linejoin="miter" stroke-miterlimit="2" width="99.2128pt" height="99.2128pt"/>
      <circle id="defitem6" r="4.53544pt" cx="4.53544pt" cy="4.53544pt" transform="translate(56.3387, 56.3387)" fill="#ffffff" fill-opacity="1" fill-rule="evenodd"/>
    </g>
    <g id="defitem384" transform="translate(310.04, -1.85625e-05)">
      <rect id="defitem5" fill="#000000" fill-opacity="1" fill-rule="evenodd" stroke="#000000" stroke-opacity="1" stroke-width="0" stroke-linecap="square" stroke-linejoin="miter" stroke-miterlimit="2" width="99.2128pt" height="99.2128pt"/>
      <path id="defitem6" fill="#ffffff" fill-opacity="1" fill-rule="evenodd" d="M11.3386 5.6693C11.3386 2.53823 8.80037 1.91716e-16 5.6693 0C2.53823 -1.91716e-16 3.83433e-16 2.53823 0 5.6693C-3.83433e-16 8.80037 2.53823 11.3386 5.6693 11.3386C8.80037 11.3386 11.3386 8.80037 11.3386 5.6693"  transform="translate(56.3387, 56.3387)" />
    </g>
    <g id="defitem385" transform="translate(620.08, 0)">
      <rect id="defitem5" fill="#000000" fill-opacity="1" fill-rule="evenodd" stroke="#000000" stroke-opacity="1" stroke-width="0" stroke-linecap="square" stroke-linejoin="miter" stroke-miterlimit="2" width="99.2128pt" height="99.2128pt"/>
      <path id="defitem6" fill="#ffffff" fill-opacity="1" fill-rule="evenodd" d="M11.3386 5.6693C11.3386 2.53823 8.80037 1.91716e-16 5.6693 0C2.53823 -1.91716e-16 3.83433e-16 2.53823 0 5.6693C-3.83433e-16 8.80037 2.53823 11.3386 5.6693 11.3386C8.80037 11.3386 11.3386 8.80037 11.3386 5.6693"  transform="translate(56.3387, 56.3388)" />
    </g>
    <g id="defitem386" transform="translate(0, 868.112)">
      <rect id="defitem5" fill="#000000" fill-opacity="1" fill-rule="evenodd" stroke="#000000" stroke-opacity="1" stroke-width="0" stroke-linecap="square" stroke-linejoin="miter" stroke-miterlimit="2" width="99.2128pt" height="99.2128pt"/>
      <path id="defitem6" fill="#ffffff" fill-opacity="1" fill-rule="evenodd" d="M11.3386 5.6693C11.3386 2.53823 8.80037 1.91716e-16 5.6693 0C2.53823 -1.91716e-16 3.83433e-16 2.53823 0 5.6693C-3.83433e-16 8.80037 2.53823 11.3386 5.6693 11.3386C8.80037 11.3386 11.3386 8.80037 11.3386 5.6693"  transform="translate(56.3387, 56.3387)" />
    </g>
    <g id="defitem387" transform="translate(310.04, 868.112)">
      <rect id="defitem5" fill="#000000" fill-opacity="1" fill-rule="evenodd" stroke="#000000" stroke-opacity="1" stroke-width="0" stroke-linecap="square" stroke-linejoin="miter" stroke-miterlimit="2" width="99.2128pt" height="99.2128pt"/>
      <path id="defitem6" fill="#ffffff" fill-opacity="1" fill-rule="evenodd" d="M11.3386 5.6693C11.3386 2.53823 8.80037 1.91716e-16 5.6693 0C2.53823 -1.91716e-16 3.83433e-16 2.53823 0 5.6693C-3.83433e-16 8.80037 2.53823 11.3386 5.6693 11.3386C8.80037 11.3386 11.3386 8.80037 11.3386 5.6693"  transform="translate(56.3387, 56.3388)" />
    </g>
    <g id="defitem388" transform="translate(620.08, 868.112)">
      <rect id="defitem5" fill="#000000" fill-opacity="1" fill-rule="evenodd" stroke="#000000" stroke-opacity="1" stroke-width="0" stroke-linecap="square" stroke-linejoin="miter" stroke-miterlimit="2" width="99.2128pt" height="99.2128pt"/>
      <path id="defitem6" fill="#ffffff" fill-opacity="1" fill-rule="evenodd" d="M11.3386 5.6693C11.3386 2.53823 8.80037 1.91716e-16 5.6693 0C2.53823 -1.91716e-16 3.83433e-16 2.53823 0 5.6693C-3.83433e-16 8.80037 2.53823 11.3386 5.6693 11.3386C8.80037 11.3386 11.3386 8.80037 11.3386 5.6693"  transform="translate(56.3387, 56.3387)" />
    </g>
    <g id="defitem389" transform="translate(0, 578.729)">
      <rect id="defitem5" fill="#000000" fill-opacity="1" fill-rule="evenodd" stroke="#000000" stroke-opacity="1" stroke-width="0" stroke-linecap="square" stroke-linejoin="miter" stroke-miterlimit="2" width="99.2128pt" height="99.2128pt"/>
      <path id="defitem6" fill="#ffffff" fill-opacity="1" fill-rule="evenodd" d="M11.3386 5.6693C11.3386 2.53823 8.80037 1.91716e-16 5.6693 0C2.53823 -1.91716e-16 3.83433e-16 2.53823 0 5.6693C-3.83433e-16 8.80037 2.53823 11.3386 5.6693 11.3386C8.80037 11.3386 11.3386 8.80037 11.3386 5.6693"  transform="translate(56.3387, 56.3387)" />
    </g>
    <g id="defitem390" transform="translate(620.08, 578.729)">
      <rect id="defitem5" fill="#000000" fill-opacity="1" fill-rule="evenodd" stroke="#000000" stroke-opacity="1" stroke-width="0" stroke-linecap="square" stroke-linejoin="miter" stroke-miterlimit="2" width="99.2128pt" height="99.2128pt"/>
      <path id="defitem6" fill="#ffffff" fill-opacity="1" fill-rule="evenodd" d="M11.3386 5.6693C11.3386 2.53823 8.80037 1.91716e-16 5.6693 0C2.53823 -1.91716e-16 3.83433e-16 2.53823 0 5.6693C-3.83433e-16 8.80037 2.53823 11.3386 5.6693 11.3386C8.80037 11.3386 11.3386 8.80037 11.3386 5.6693"  transform="translate(56.3387, 56.3387)" />
    </g>
    <g id="defitem391" transform="translate(310.04, 434.056)">
      <rect id="defitem5" fill="#000000" fill-opacity="1" fill-rule="evenodd" stroke="#000000" stroke-opacity="1" stroke-width="0" stroke-linecap="square" stroke-linejoin="miter" stroke-miterlimit="2" width="99.2128pt" height="99.2128pt"/>
      <path id="defitem6" fill="#ffffff" fill-opacity="1" fill-rule="evenodd" d="M11.3386 5.6693C11.3386 2.53823 8.80037 1.91716e-16 5.6693 0C2.53823 -1.91716e-16 3.83433e-16 2.53823 0 5.6693C-3.83433e-16 8.80037 2.53823 11.3386 5.6693 11.3386C8.80037 11.3386 11.3386 8.80037 11.3386 5.6693"  transform="translate(56.3387, 56.3388)" />
    </g>
    <g id="defitem392" transform="translate(310.04, 217.028)">
      <rect id="defitem5" fill="#000000" fill-opacity="1" fill-rule="evenodd" stroke="#000000" stroke-opacity="1" stroke-width="0" stroke-linecap="square" stroke-linejoin="miter" stroke-miterlimit="2" width="99.2128pt" height="99.2128pt"/>
      <path id="defitem6" fill="#ffffff" fill-opacity="1" fill-rule="evenodd" d="M11.3386 5.6693C11.3386 2.53823 8.80037 1.91716e-16 5.6693 0C2.53823 -1.91716e-16 3.83433e-16 2.53823 0 5.6693C-3.83433e-16 8.80037 2.53823 11.3386 5.6693 11.3386C8.80037 11.3386 11.3386 8.80037 11.3386 5.6693"  transform="translate(56.3387, 56.3388)" />
    </g>
    <g id="defitem393" transform="translate(310.04, 651.084)">
      <rect id="defitem5" fill="#000000" fill-opacity="1" fill-rule="evenodd" stroke="#000000" stroke-opacity="1" stroke-width="0" stroke-linecap="square" stroke-linejoin="miter" stroke-miterlimit="2" width="99.2128pt" height="99.2128pt"/>
      <path id="defitem6" fill="#ffffff" fill-opacity="1" fill-rule="evenodd" d="M11.3386 5.6693C11.3386 2.53823 8.80037 1.91716e-16 5.6693 0C2.53823 -1.91716e-16 3.83433e-16 2.53823 0 5.6693C-3.83433e-16 8.80037 2.53823 11.3386 5.6693 11.3386C8.80037 11.3386 11.3386 8.80037 11.3386 5.6693"  transform="translate(56.3387, 56.3388)" />
    </g>
    <g id="defitem1311" transform="translate(7.9744, 153.073)">
      <rect id="defitem1312" transform="matrix(1 0 0 1 0.883883 0.883883)" fill="#000000" fill-opacity="1" fill-rule="evenodd" stroke="none" stroke-opacity="1" stroke-width="1.25" stroke-linecap="square" stroke-linejoin="miter" stroke-miterlimit="2" width="85.0395pt" height="8.50395pt"/>
      <rect id="defitem1313" transform="translate(0.883883, 20.9568)" fill="#000000" fill-opacity="1" fill-rule="evenodd" width="85.0395pt" height="7.56852pt"/>
      <rect id="defitem1314" transform="translate(0.883883, 40.9588)" fill="#000000" fill-opacity="1" fill-rule="evenodd" width="85.0395pt" height="6.74647pt"/>
      <rect id="defitem1315" transform="matrix(1 0 0 1 0.883883 60.9076)" fill="#000000" fill-opacity="1" fill-rule="evenodd" width="85.0395pt" height="6.00946pt"/>
      <rect id="defitem1316" transform="translate(0.883883, 80.8033)" fill="#000000" fill-opacity="1" fill-rule="evenodd" width="85.0395pt" height="5.35749pt"/>
      <rect id="defitem1317" transform="translate(0.883883, 100.664)" fill="#000000" fill-opacity="1" fill-rule="evenodd" width="85.0395pt" height="4.76221pt"/>
    </g>
    <g id="defitem1318" transform="translate(8.85828, 736.052)">
      <rect id="defitem1319" fill="#000000" fill-opacity="1" fill-rule="evenodd" width="85.0395pt" height="4.76221pt"/>
      <rect id="defitem1320" transform="translate(2.22045e-15, 19.1155)" fill="#000000" fill-opacity="1" fill-rule="evenodd" width="85.0395pt" height="5.35749pt"/>
      <rect id="defitem1321" transform="matrix(1 0 0 1 2.22045e-15 38.1967)" fill="#000000" fill-opacity="1" fill-rule="evenodd" width="85.0395pt" height="6.00946pt"/>
      <rect id="defitem1322" transform="translate(2.22045e-15, 57.2236)" fill="#000000" fill-opacity="1" fill-rule="evenodd" width="85.0395pt" height="6.74647pt"/>
      <rect id="defitem1323" transform="translate(2.22045e-15, 76.1986)" fill="#000000" fill-opacity="1" fill-rule="evenodd" width="85.0395pt" height="7.56852pt"/>
      <rect id="defitem1324" transform="translate(2.22045e-15, 95.1027)" fill="#000000" fill-opacity="1" fill-rule="evenodd" width="85.0395pt" height="8.50395pt"/>
    </g>
    <g id="defitem1325" transform="translate(163.703, 7.9744)">
      <rect id="defitem1326" transform="translate(0.883883, 0.883883)" fill="#000000" fill-opacity="1" fill-rule="evenodd" stroke="none" stroke-opacity="1" stroke-width="1.25" stroke-linecap="square" stroke-linejoin="miter" stroke-miterlimit="2" width="8.50395pt" height="85.0395pt"/>
      <rect id="defitem1327" transform="translate(20.9568, 0.883883)" fill="#000000" fill-opacity="1" fill-rule="evenodd" width="7.56852pt" height="85.0395pt"/>
      <rect id="defitem1328" transform="translate(40.9588, 0.883883)" fill="#000000" fill-opacity="1" fill-rule="evenodd" width="6.74647pt" height="85.0395pt"/>
      <rect id="defitem1329" transform="matrix(1 0 0 1 60.9076 0.883883)" fill="#000000" fill-opacity="1" fill-rule="evenodd" width="6.00946pt" height="85.0395pt"/>
      <rect id="defitem1330" transform="translate(80.8033, 0.883883)" fill="#000000" fill-opacity="1" fill-rule="evenodd" width="5.35749pt" height="85.0395pt"/>
      <rect id="defitem1331" transform="translate(100.664, 0.883883)" fill="#000000" fill-opacity="1" fill-rule="evenodd" width="4.76221pt" height="85.0395pt"/>
    </g>
    <g id="defitem1332" transform="translate(474.202, 8.85828)">
      <rect id="defitem1333" fill="#000000" fill-opacity="1" fill-rule="evenodd" width="4.76221pt" height="85.0395pt"/>
      <rect id="defitem1334" transform="translate(19.1167, 1.11022e-15)" fill="#000000" fill-opacity="1" fill-rule="evenodd" width="5.35749pt" height="85.0395pt"/>
      <rect id="defitem1335" transform="matrix(1 0 0 1 38.1967 0)" fill="#000000" fill-opacity="1" fill-rule="evenodd" width="6.00946pt" height="85.0395pt"/>
      <rect id="defitem1336" transform="translate(57.2248, 1.11022e-15)" fill="#000000" fill-opacity="1" fill-rule="evenodd" width="6.74647pt" height="85.0395pt"/>
      <rect id="defitem1337" transform="translate(76.1986, 1.11022e-15)" fill="#000000" fill-opacity="1" fill-rule="evenodd" width="7.56852pt" height="85.0395pt"/>
      <rect id="defitem1338" transform="translate(95.1027, 1.11022e-15)" fill="#000000" fill-opacity="1" fill-rule="evenodd" width="8.50395pt" height="85.0395pt"/>
    </g>
    <g id="defitem1339" transform="translate(9.1416, 442.914)">
      <rect id="defitem1340" fill="#000000" fill-opacity="1" fill-rule="evenodd" width="8.50395pt" height="85.0395pt"/>
      <rect id="defitem1341" transform="translate(20.0725, 1.11022e-15)" fill="#000000" fill-opacity="1" fill-rule="evenodd" width="7.56852pt" height="85.0395pt"/>
      <rect id="defitem1342" transform="translate(40.075, 1.11022e-15)" fill="#000000" fill-opacity="1" fill-rule="evenodd" width="6.74647pt" height="85.0395pt"/>
      <rect id="defitem1343" transform="translate(60.0238, 1.11022e-15)" fill="#000000" fill-opacity="1" fill-rule="evenodd" width="6.00946pt" height="85.0395pt"/>
      <rect id="defitem1344" transform="translate(79.92, 1.11022e-15)" fill="#000000" fill-opacity="1" fill-rule="evenodd" width="5.35749pt" height="85.0395pt"/>
      <rect id="defitem1345" transform="translate(99.78, 1.11022e-15)" fill="#000000" fill-opacity="1" fill-rule="evenodd" width="4.76221pt" height="85.0395pt"/>
    </g>
    <g id="defitem1346" transform="translate(164.162, 876.97)">
      <rect id="defitem1347" fill="#000000" fill-opacity="1" fill-rule="evenodd" width="8.50395pt" height="85.0395pt"/>
      <rect id="defitem1348" transform="translate(20.0725, 0)" fill="#000000" fill-opacity="1" fill-rule="evenodd" width="7.56852pt" height="85.0395pt"/>
      <rect id="defitem1349" transform="translate(40.075, 0)" fill="#000000" fill-opacity="1" fill-rule="evenodd" width="6.74647pt" height="85.0395pt"/>
      <rect id="defitem1350" transform="translate(60.0238, 0)" fill="#000000" fill-opacity="1" fill-rule="evenodd" width="6.00946pt" height="85.0395pt"/>
      <rect id="defitem1351" transform="translate(79.92, 0)" fill="#000000" fill-opacity="1" fill-rule="evenodd" width="5.35749pt" height="85.0395pt"/>
      <rect id="defitem1352" transform="translate(99.78, 0)" fill="#000000" fill-opacity="1" fill-rule="evenodd" width="4.76221pt" height="85.0395pt"/>
    </g>
    <g id="defitem1353" transform="translate(628.938, 732.509)">
      <rect id="defitem1354" fill="#000000" fill-opacity="1" fill-rule="evenodd" width="85.0395pt" height="4.76221pt"/>
      <rect id="defitem1355" transform="translate(-4.44089e-15, 19.115)" fill="#000000" fill-opacity="1" fill-rule="evenodd" width="85.0395pt" height="5.35749pt"/>
      <rect id="defitem1356" transform="translate(-4.44089e-15, 38.1963)" fill="#000000" fill-opacity="1" fill-rule="evenodd" width="85.0395pt" height="6.00946pt"/>
      <rect id="defitem1357" transform="translate(-4.44089e-15, 57.2237)" fill="#000000" fill-opacity="1" fill-rule="evenodd" width="85.0395pt" height="6.74647pt"/>
      <rect id="defitem1358" transform="translate(-4.44089e-15, 76.1988)" fill="#000000" fill-opacity="1" fill-rule="evenodd" width="85.0395pt" height="7.56852pt"/>
      <rect id="defitem1359" transform="translate(-4.44089e-15, 95.1025)" fill="#000000" fill-opacity="1" fill-rule="evenodd" width="85.0395pt" height="8.50395pt"/>
    </g>
    <g id="defitem1360" transform="translate(629.222, 442.914)">
      <rect id="defitem1361" fill="#000000" fill-opacity="1" fill-rule="evenodd" width="4.76221pt" height="85.0395pt"/>
      <rect id="defitem1362" transform="translate(19.1163, 1.11022e-15)" fill="#000000" fill-opacity="1" fill-rule="evenodd" width="5.35749pt" height="85.0395pt"/>
      <rect id="defitem1363" transform="translate(38.1963, 1.11022e-15)" fill="#000000" fill-opacity="1" fill-rule="evenodd" width="6.00946pt" height="85.0395pt"/>
      <rect id="defitem1364" transform="translate(57.225, 1.11022e-15)" fill="#000000" fill-opacity="1" fill-rule="evenodd" width="6.74647pt" height="85.0395pt"/>
      <rect id="defitem1365" transform="translate(76.1988, 1.11022e-15)" fill="#000000" fill-opacity="1" fill-rule="evenodd" width="7.56852pt" height="85.0395pt"/>
      <rect id="defitem1366" transform="translate(95.1025, 1.11022e-15)" fill="#000000" fill-opacity="1" fill-rule="evenodd" width="8.50395pt" height="85.0395pt"/>
    </g>
    <g id="defitem1367" transform="translate(628.938, 153.532)">
      <rect id="defitem1368" fill="#000000" fill-opacity="1" fill-rule="evenodd" width="85.0395pt" height="8.50395pt"/>
      <rect id="defitem1369" transform="translate(1.11022e-15, 20.0725)" fill="#000000" fill-opacity="1" fill-rule="evenodd" width="85.0395pt" height="7.56852pt"/>
      <rect id="defitem1370" transform="translate(1.11022e-15, 40.075)" fill="#000000" fill-opacity="1" fill-rule="evenodd" width="85.0395pt" height="6.74647pt"/>
      <rect id="defitem1371" transform="translate(1.11022e-15, 60.0238)" fill="#000000" fill-opacity="1" fill-rule="evenodd" width="85.0395pt" height="6.00946pt"/>
      <rect id="defitem1372" transform="translate(1.11022e-15, 79.9188)" fill="#000000" fill-opacity="1" fill-rule="evenodd" width="85.0395pt" height="5.35749pt"/>
      <rect id="defitem1373" transform="translate(1.11022e-15, 99.7788)" fill="#000000" fill-opacity="1" fill-rule="evenodd" width="85.0395pt" height="4.76221pt"/>
    </g>
    <g id="defitem1374" transform="translate(474.202, 876.97)">
      <rect id="defitem1375" fill="#000000" fill-opacity="1" fill-rule="evenodd" width="4.76221pt" height="85.0395pt"/>
      <rect id="defitem1376" transform="translate(19.1162, 0)" fill="#000000" fill-opacity="1" fill-rule="evenodd" width="5.35749pt" height="85.0395pt"/>
      <rect id="defitem1377" transform="translate(38.1962, 0)" fill="#000000" fill-opacity="1" fill-rule="evenodd" width="6.00946pt" height="85.0395pt"/>
      <rect id="defitem1378" transform="translate(57.225, 0)" fill="#000000" fill-opacity="1" fill-rule="evenodd" width="6.74647pt" height="85.0395pt"/>
      <rect id="defitem1379" transform="translate(76.1987, 0)" fill="#000000" fill-opacity="1" fill-rule="evenodd" width="7.56852pt" height="85.0395pt"/>
      <rect id="defitem1380" transform="translate(95.1025, 0)" fill="#000000" fill-opacity="1" fill-rule="evenodd" width="8.50395pt" height="85.0395pt"/>
    </g>
  </g>
</svg>
